<?xml version="1.0" standalone="no"?>
<!DOCTYPE svg PUBLIC "-//W3C//DTD SVG 20010904//EN"
 "http://www.w3.org/TR/2001/REC-SVG-20010904/DTD/svg10.dtd">
<svg version="1.0" xmlns="http://www.w3.org/2000/svg"
 width="300.000000pt" height="300.000000pt" viewBox="0 0 300.000000 300.000000"
 preserveAspectRatio="xMidYMid meet">
<metadata>
Created by potrace 1.14, written by Peter Selinger 2001-2017
</metadata>
<g transform="translate(0.000000,300.000000) scale(0.100000,-0.100000)"
fill="#000000" stroke="none">
<path d="M1301 2664 c-292 -49 -566 -217 -749 -459 -67 -90 -155 -266 -186
-376 -214 -750 352 -1499 1132 -1499 714 0 1271 653 1157 1357 -62 381 -294
696 -640 868 -228 113 -470 150 -714 109z m299 -819 l0 -235 235 0 235 0 0
-100 0 -100 -235 0 -235 0 0 -235 0 -235 -100 0 -100 0 0 235 0 235 -235 0
-235 0 0 100 0 100 235 0 235 0 0 235 0 235 100 0 100 0 0 -235z"/>
</g>
</svg>
